# xmcd
#
# Track frame offsets:
#	150
#	20755
#	36854
#	56390
#	73749
#	90126
#	106323
#	125361
#
# Disc length: 1896 seconds
#
# Revision: 1
# Processed by: cddbd v1.5.2PL0 Copyright (c) Steve Scherf et al.
# Submitted via: audiograbber 1.83.01
#
DISCID=60076608
DTITLE=Brian Fallon - Local Honey
DYEAR=2020
DGENRE=Country
TTITLE0=When You're Ready
TTITLE1=21 Days
TTITLE2=Vincent
TTITLE3=I Don't Mind (If I'm With You)
TTITLE4=Lonely For You Only
TTITLE5=Horses
TTITLE6=Hard Feelings
TTITLE7=You Have Stolen My Heart
EXTD=
EXTT0=
EXTT1=
EXTT2=
EXTT3=
EXTT4=
EXTT5=
EXTT6=
EXTT7=
PLAYORDER=
